<?xml version="1.0" encoding="UTF-8"?>
<svg viewBox="0 0 800 500" xmlns="http://www.w3.org/2000/svg">
  <!-- Background -->
  <defs>
    <linearGradient id="bgGradient" x1="0%" y1="0%" x2="100%" y2="100%">
      <stop offset="0%" style="stop-color:#0f172a;stop-opacity:1" />
      <stop offset="100%" style="stop-color:#1e293b;stop-opacity:1" />
    </linearGradient>
    <linearGradient id="humanGlow" x1="0%" y1="0%" x2="100%" y2="100%">
      <stop offset="0%" style="stop-color:#3b82f6;stop-opacity:0.7" />
      <stop offset="100%" style="stop-color:#2563eb;stop-opacity:0.1" />
    </linearGradient>
    <linearGradient id="aiGlow" x1="0%" y1="0%" x2="100%" y2="100%">
      <stop offset="0%" style="stop-color:#a855f7;stop-opacity:0.7" />
      <stop offset="100%" style="stop-color:#7e22ce;stop-opacity:0.1" />
    </linearGradient>
    <filter id="glow" x="-50%" y="-50%" width="200%" height="200%">
      <feGaussianBlur stdDeviation="5" result="blur" />
      <feComposite in="SourceGraphic" in2="blur" operator="over" />
    </filter>
  </defs>

  <!-- Main Background -->
  <rect x="0" y="0" width="800" height="500" fill="url(#bgGradient)" />

  <!-- Connection Grid Background -->
  <g stroke="#2d3748" stroke-width="0.5" opacity="0.3">
    <!-- Horizontal lines -->
    <line x1="0" y1="50" x2="800" y2="50" />
    <line x1="0" y1="100" x2="800" y2="100" />
    <line x1="0" y1="150" x2="800" y2="150" />
    <line x1="0" y1="200" x2="800" y2="200" />
    <line x1="0" y1="250" x2="800" y2="250" />
    <line x1="0" y1="300" x2="800" y2="300" />
    <line x1="0" y1="350" x2="800" y2="350" />
    <line x1="0" y1="400" x2="800" y2="400" />
    <line x1="0" y1="450" x2="800" y2="450" />
    
    <!-- Vertical lines -->
    <line x1="50" y1="0" x2="50" y2="500" />
    <line x1="100" y1="0" x2="100" y2="500" />
    <line x1="150" y1="0" x2="150" y2="500" />
    <line x1="200" y1="0" x2="200" y2="500" />
    <line x1="250" y1="0" x2="250" y2="500" />
    <line x1="300" y1="0" x2="300" y2="500" />
    <line x1="350" y1="0" x2="350" y2="500" />
    <line x1="400" y1="0" x2="400" y2="500" />
    <line x1="450" y1="0" x2="450" y2="500" />
    <line x1="500" y1="0" x2="500" y2="500" />
    <line x1="550" y1="0" x2="550" y2="500" />
    <line x1="600" y1="0" x2="600" y2="500" />
    <line x1="650" y1="0" x2="650" y2="500" />
    <line x1="700" y1="0" x2="700" y2="500" />
    <line x1="750" y1="0" x2="750" y2="500" />
  </g>

  <!-- Human Side Glow -->
  <circle cx="250" cy="250" r="150" fill="url(#humanGlow)" filter="url(#glow)" opacity="0.5" />
  
  <!-- AI Side Glow -->
  <circle cx="550" cy="250" r="150" fill="url(#aiGlow)" filter="url(#glow)" opacity="0.5" />

  <!-- Connection Lines between human and AI -->
  <g stroke-width="1.5" stroke-dasharray="5,3">
    <path d="M 300 170 Q 400 120, 500 170" stroke="#60a5fa" fill="none" />
    <path d="M 300 200 Q 400 170, 500 200" stroke="#818cf8" fill="none" />
    <path d="M 300 230 Q 400 220, 500 230" stroke="#a78bfa" fill="none" />
    <path d="M 300 260 Q 400 270, 500 260" stroke="#c084fc" fill="none" />
    <path d="M 300 290 Q 400 320, 500 290" stroke="#e879f9" fill="none" />
    <path d="M 300 320 Q 400 370, 500 320" stroke="#f472b6" fill="none" />
  </g>

  <!-- Human Figure (silhouette) -->
  <g transform="translate(200, 150)" fill="#3b82f6">
    <!-- Head -->
    <circle cx="50" cy="50" r="30" />
    <!-- Body -->
    <path d="M 50,80 L 50,180 M 50,100 L 20,150 M 50,100 L 80,150" stroke="#3b82f6" stroke-width="8" fill="none" />
    
    <!-- Thought Bubbles -->
    <g fill="#60a5fa" opacity="0.8">
      <circle cx="90" cy="30" r="5" />
      <circle cx="100" cy="20" r="7" />
      <circle cx="115" cy="15" r="10" />
    </g>
    
    <!-- Code Understanding -->
    <g transform="translate(-50, 0)">
      <rect x="30" y="200" width="140" height="80" fill="#1e40af" rx="5" opacity="0.5" />
      <text x="40" y="225" fill="#f8fafc" font-family="monospace" font-size="12">function understand() {</text>
      <text x="50" y="245" fill="#f8fafc" font-family="monospace" font-size="12">return context</text>
      <text x="55" y="265" fill="#f8fafc" font-family="monospace" font-size="12">.analyze();</text>
      <text x="40" y="285" fill="#f8fafc" font-family="monospace" font-size="12">}</text>
    </g>
  </g>

  <!-- AI Figure -->
  <g transform="translate(500, 150)">
    <!-- AI Circle -->
    <circle cx="50" cy="50" r="40" fill="#a855f7" opacity="0.8" />
    
    <!-- Inner Network Lines -->
    <g stroke="#f0abfc" stroke-width="1.5" opacity="0.7">
      <line x1="30" y1="40" x2="70" y2="60" />
      <line x1="30" y1="60" x2="70" y2="40" />
      <line x1="40" y1="30" x2="60" y2="70" />
      <line x1="40" y1="70" x2="60" y2="30" />
      <circle cx="30" cy="40" r="3" fill="#f0abfc" />
      <circle cx="70" cy="60" r="3" fill="#f0abfc" />
      <circle cx="30" cy="60" r="3" fill="#f0abfc" />
      <circle cx="70" cy="40" r="3" fill="#f0abfc" />
      <circle cx="40" cy="30" r="3" fill="#f0abfc" />
      <circle cx="60" cy="70" r="3" fill="#f0abfc" />
      <circle cx="40" cy="70" r="3" fill="#f0abfc" />
      <circle cx="60" cy="30" r="3" fill="#f0abfc" />
    </g>
    
    <!-- Neural network extensions -->
    <g stroke="#d8b4fe" stroke-width="1" opacity="0.6">
      <path d="M 85 35 Q 100 20, 120 25" />
      <path d="M 85 65 Q 100 80, 120 75" />
      <circle cx="120" cy="25" r="2" fill="#d8b4fe" />
      <circle cx="120" cy="75" r="2" fill="#d8b4fe" />
    </g>
    
    <!-- AI Code Suggestion -->
    <g transform="translate(-50, 0)">
      <rect x="30" y="200" width="140" height="80" fill="#7e22ce" rx="5" opacity="0.5" />
      <text x="40" y="225" fill="#f8fafc" font-family="monospace" font-size="12">function suggest() {</text>
      <text x="50" y="245" fill="#f8fafc" font-family="monospace" font-size="12">return patterns</text>
      <text x="55" y="265" fill="#f8fafc" font-family="monospace" font-size="12">.optimize();</text>
      <text x="40" y="285" fill="#f8fafc" font-family="monospace" font-size="12">}</text>
    </g>
  </g>

  <!-- Central Bridge/Connection -->
  <g transform="translate(350, 230)">
    <path d="M -30,0 L 30,0" stroke="#f8fafc" stroke-width="3" />
    <circle cx="0" cy="0" r="15" fill="#f8fafc" opacity="0.2" />
    <text x="-50" y="40" fill="#f8fafc" font-family="Arial, sans-serif" font-size="16" text-anchor="middle">Human</text>
    <text x="50" y="40" fill="#f8fafc" font-family="Arial, sans-serif" font-size="16" text-anchor="middle">AI</text>
    <text x="0" y="5" fill="#f8fafc" font-family="Arial, sans-serif" font-size="12" text-anchor="middle">Collaboration</text>
  </g>

  <!-- Flying Code Blocks in Background -->
  <g opacity="0.5">
    <!-- Code Block 1 -->
    <rect x="100" y="80" width="80" height="40" fill="#3b82f6" rx="3" opacity="0.3" />
    <text x="110" y="105" fill="#f8fafc" font-family="monospace" font-size="10">if (human) {</text>
    
    <!-- Code Block 2 -->
    <rect x="650" y="150" width="80" height="40" fill="#a855f7" rx="3" opacity="0.3" />
    <text x="660" y="175" fill="#f8fafc" font-family="monospace" font-size="10">AI.assist();</text>
    
    <!-- Code Block 3 -->
    <rect x="150" y="380" width="100" height="40" fill="#3b82f6" rx="3" opacity="0.3" />
    <text x="160" y="405" fill="#f8fafc" font-family="monospace" font-size="10">teamwork();</text>
    
    <!-- Code Block 4 -->
    <rect x="580" y="350" width="100" height="40" fill="#a855f7" rx="3" opacity="0.3" />
    <text x="590" y="375" fill="#f8fafc" font-family="monospace" font-size="10">solve(problem);</text>
  </g>

  <!-- Title -->
  <text x="400" y="40" fill="#f8fafc" font-family="Arial, sans-serif" font-size="24" text-anchor="middle" font-weight="bold">The New Frontier of Coding</text>
  <text x="400" y="70" fill="#cbd5e1" font-family="Arial, sans-serif" font-size="16" text-anchor="middle">Human Understanding + AI Assistance</text>

  <!-- Footer -->
  <text x="400" y="470" fill="#94a3b8" font-family="Arial, sans-serif" font-size="14" text-anchor="middle">Where creativity meets computational power</text>
</svg>